:FULLY-SPECIFIED
:FORCE-ALL-JOINTS-BE-3DOF
:DEGREES
1223
root -0.897063 14.8898 -16.1308 10.1354 15.3897 0.0270436
lfemur -2.35717 -1.56213 -8.83225
ltibia 64.0462 -0 0
lfoot 4.88011 -0.491473 -0.79369
ltoes -29.2343 0 0
rfemur -52.2611 -8.38869 24.1431
rtibia 73.7263 -0 0
rfoot -20.9051 -21.7523 0.212577
rtoes -5.53487 0 0
lowerback 12.3208 1.37004 -2.10754
upperback -3.56108 1.50928 0.0875459
thorax -10.8672 0.860047 0.953777
lowerneck -1.35668 -8.14124 -9.4724
upperneck 0.637382 -10.8785 10.0825
head 1.50605 -5.39466 4.24089
lclavicle -2.28762e-14 -1.8115e-14 -1.08587e-31
lhumerus -54.6041 -34.4333 118.679
lradius 85.5011 -0 0
lwrist 8.23361 0 0
lhand -28.8643 26.14 0.203503
lfingers 7.12502 -0 0
lthumb -2.22098 56.0517 0.192058
rclavicle -2.28762e-14 -1.8115e-14 -1.08587e-31
rhumerus 64.9994 5.97552 -26.489
rradius 93.9646 -0 0
rwrist -14.5046 0 0
rhand -28.6792 -34.5182 -0.0237766
rfingers 7.12502 -0 0
rthumb -2.04136 -64.4691 -0.0248881
1224
root -0.909577 14.8998 -16.0217 10.3286 14.9925 -0.134751
lfemur -2.67088 -1.69337 -8.83781
ltibia 64.6932 -0 0
lfoot 5.4784 -1.27707 -0.633443
ltoes -29.291 0 0
rfemur -52.1709 -8.10549 24.5286
rtibia 73.8462 -0 0
rfoot -21.1309 -22.3218 0.169753
rtoes -5.43694 0 0
lowerback 12.2342 1.3315 -1.91601
upperback -3.61429 1.4917 0.113972
thorax -10.8683 0.841563 0.880448
lowerneck -1.39279 -8.02795 -9.38214
upperneck 0.57062 -10.7188 10.0219
head 1.4646 -5.31426 4.22023
lclavicle -2.38512e-14 -1.81832e-14 -8.67469e-32
lhumerus -54.207 -34.9072 119.012
lradius 85.0131 -0 0
lwrist 6.75853 0 0
lhand -29.2346 25.8062 0.162534
lfingers 7.12502 -0 0
lthumb -2.57849 55.7253 0.153395
rclavicle -2.38512e-14 -1.81832e-14 -8.67469e-32
rhumerus 65.0694 6.34021 -26.4165
rradius 94.0462 -0 0
rwrist -15.0857 0 0
rhand -28.4651 -34.5861 -0.0189936
rfingers 7.12502 -0 0
rthumb -1.8347 -64.5427 -0.0198815
1225
root -0.920745 14.9087 -15.9243 10.5017 14.6384 -0.280072
lfemur -2.95087 -1.81053 -8.84217
ltibia 65.2705 -0 0
lfoot 6.01046 -1.97675 -0.483515
ltoes -29.3416 0 0
rfemur -52.0888 -7.85324 24.8729
rtibia 73.9532 -0 0
rfoot -21.332 -22.8298 0.129648
rtoes -5.34953 0 0
lowerback 12.1568 1.29734 -1.74502
upperback -3.66178 1.47603 0.13757
thorax -10.8694 0.825065 0.815004
lowerneck -1.42485 -7.92679 -9.30167
upperneck 0.510919 -10.5764 9.96766
head 1.42758 -5.24251 4.20175
lclavicle -2.47213e-14 -1.82441e-14 -6.62748e-32
lhumerus -53.8536 -35.3317 119.306
lradius 84.5776 -0 0
lwrist 5.44201 0 0
lhand -29.5649 25.5086 0.124149
lfingers 7.12502 -0 0
lthumb -2.89738 55.4342 0.11717
rclavicle -2.47213e-14 -1.82441e-14 -6.62748e-32
rhumerus 65.1322 6.66546 -26.3514
rradius 94.1189 -0 0
rwrist -15.6041 0 0
rhand -28.274 -34.6466 -0.0145106
rfingers 7.12502 -0 0
rthumb -1.65026 -64.6084 -0.0151889
1226
root -0.930467 14.9165 -15.8395 10.653 14.3303 -0.407342
lfemur -3.19466 -1.91255 -8.8455
ltibia 65.7731 -0 0
lfoot 6.47217 -2.58475 -0.347705
ltoes -29.3856 0 0
rfemur -52.0161 -7.63396 25.1729
rtibia 74.0464 -0 0
rfoot -21.5069 -23.272 0.093281
rtoes -5.27344 0 0
lowerback 12.0893 1.26779 -1.59611
upperback -3.70314 1.4624 0.158126
thorax -10.8702 0.810701 0.758027
lowerneck -1.45264 -7.83868 -9.23167
upperneck 0.458852 -10.4525 9.92036
head 1.39533 -5.18005 4.18562
lclavicle -2.54789e-14 -1.82971e-14 -4.76985e-32
lhumerus -53.5465 -35.7026 119.562
lradius 84.1983 -0 0
lwrist 4.29582 0 0
lhand -29.8524 25.2496 0.0893225
lfingers 7.12502 -0 0
lthumb -3.17495 55.1809 0.0843027
rclavicle -2.54789e-14 -1.82971e-14 -4.76985e-32
rhumerus 65.1873 6.94858 -26.2944
rradius 94.1823 -0 0
rwrist -16.0555 0 0
rhand -28.1077 -34.6994 -0.010443
rfingers 7.12502 -0 0
rthumb -1.48968 -64.6655 -0.0109312
1227
root -0.938644 14.9231 -15.7682 10.7806 14.0716 -0.514862
lfemur -3.39974 -1.99838 -8.84797
ltibia 66.1959 -0 0
lfoot 6.85944 -3.09536 -0.229668
ltoes -29.4226 0 0
rfemur -51.9541 -7.44989 25.4252
rtibia 74.1248 -0 0
rfoot -21.6537 -23.644 0.0616373
rtoes -5.20944 0 0
lowerback 12.0325 1.24307 -1.47083
upperback -3.73793 1.45095 0.175425
thorax -10.871 0.798618 0.7101
lowerneck -1.47593 -7.76454 -9.17283
upperneck 0.41499 -10.3482 9.8805
head 1.3682 -5.12752 4.17202
lclavicle -2.61161e-14 -1.83416e-14 -3.15303e-32
lhumerus -53.2887 -36.0154 119.775
lradius 83.8794 -0 0
lwrist 3.33168 0 0
lhand -30.0939 25.0319 0.0590368
lfingers 7.12502 -0 0
lthumb -3.40821 54.9681 0.0557195
rclavicle -2.61161e-14 -1.83416e-14 -3.15303e-32
rhumerus 65.2338 7.18669 -26.2463
rradius 94.2356 -0 0
rwrist -16.4353 0 0
rhand -27.9678 -34.7437 -0.00690297
rfingers 7.12502 -0 0
rthumb -1.35461 -64.7136 -0.00722572
1228
root -0.945178 14.9283 -15.7112 10.8829 13.865 -0.601113
lfemur -3.5636 -2.06696 -8.84972
ltibia 66.5338 -0 0
lfoot 7.16803 -3.50267 -0.132903
ltoes -29.4522 0 0
rfemur -51.904 -7.30301 25.6269
rtibia 74.1874 -0 0
rfoot -21.7709 -23.941 0.0356819
rtoes -5.1583 0 0
lowerback 11.987 1.22341 -1.37072
upperback -3.76573 1.44181 0.189251
thorax -10.8715 0.788963 0.671809
lowerneck -1.49448 -7.70529 -9.12585
upperneck 0.379903 -10.265 9.8486
head 1.34651 -5.08556 4.16115
lclavicle -2.66253e-14 -1.83773e-14 -1.82559e-32
lhumerus -53.083 -36.2659 119.945
lradius 83.6246 -0 0
lwrist 2.56127 0 0
lhand -30.2869 24.8581 0.0341784
lfingers 7.12502 -0 0
lthumb -3.59451 54.7981 0.0322581
rclavicle -2.66253e-14 -1.83773e-14 -1.82559e-32
rhumerus 65.2712 7.37691 -26.2076
rradius 94.2781 -0 0
rwrist -16.7386 0 0
rhand -27.856 -34.7791 -0.00399671
rfingers 7.12502 -0 0
rthumb -1.24669 -64.752 -0.00418358
1229
root -0.949968 14.9321 -15.6695 10.958 13.7136 -0.664545
lfemur -3.68374 -2.11725 -8.85087
ltibia 66.7814 -0 0
lfoot 7.39387 -3.801 -0.0605554
ltoes -29.4739 0 0
rfemur -51.867 -7.19543 25.7748
rtibia 74.2333 -0 0
rfoot -21.8567 -24.1587 0.016265
rtoes -5.12081 0 0
lowerback 11.9537 1.20905 -1.29731
upperback -3.78611 1.43511 0.19939
thorax -10.872 0.781885 0.643736
lowerneck -1.50805 -7.66183 -9.09142
upperneck 0.354154 -10.2039 9.82518
head 1.33061 -5.0548 4.15316
lclavicle -2.69986e-14 -1.84034e-14 -8.32261e-33
lhumerus -52.9324 -36.4498 120.07
lradius 83.4377 -0 0
lwrist 1.99655 0 0
lhand -30.4283 24.7308 0.0155803
lfingers 7.12502 -0 0
lthumb -3.73106 54.6735 0.014705
rclavicle -2.69986e-14 -1.84034e-14 -8.32261e-33
rhumerus 65.2987 7.51637 -26.1792
rradius 94.3094 -0 0
rwrist -16.961 0 0
rhand -27.774 -34.8051 -0.00182201
rfingers 7.12502 -0 0
rthumb -1.16757 -64.7802 -0.0019072
